# xmcd
#
# Track frame offsets: 
#        150
#        24550
#        32873
#        49858
#        58730
#        70778
#        82780
#        97405
#        116720
#        134160
#        142148
#        150460
#        161160
#        176733
#        190518
#        198683
#        214030
#        227063
#        245283
#        260408
#        274638
#        293180
#        308573
#
# Disc length: 4273 seconds
#
# Revision: 2
# Processed by: cddbd v1.5.1PL0 Copyright (c) Steve Scherf et al.
# Submitted via: ExactAudioCopy v0.95b3
#
DISCID=5910af17
DTITLE=Stefan Grossman - How To Play Blues Guitar
DYEAR=1990
DGENRE=Blues
TTITLE0=Yonder Comes The Blues
TTITLE1=Police Dog Blues
TTITLE2=Easy Street
TTITLE3=Ragtime Mama Blues
TTITLE4=Corrina, Corrina
TTITLE5=If You Haven't Any Hay, Don't Get On Down The Road
TTITLE6=Man Of My Own
TTITLE7=Assassination Of John Fahey
TTITLE8=Moon Goin' Down
TTITLE9=Ragged And Dirty
TTITLE10=Crow Jane
TTITLE11=Pallet On Your Floor
TTITLE12=Mississippi Blues #3
TTITLE13=New Pony Blues
TTITLE14=You Got The Pocket Book, I Got The Key
TTITLE15=Someday Baby
TTITLE16=Juicy Lucy
TTITLE17=Hard Time Killin' Floor
TTITLE18=Belzona Blues
TTITLE19=Oh, Babe Ain't No Lie
TTITLE20=Special Rider Blues
TTITLE21=Weeping Willow
TTITLE22=Wake Up Mama
EXTD=
EXTT0=
EXTT1=
EXTT2=
EXTT3=
EXTT4=
EXTT5=
EXTT6=
EXTT7=
EXTT8=
EXTT9=
EXTT10=
EXTT11=
EXTT12=
EXTT13=
EXTT14=
EXTT15=
EXTT16=
EXTT17=
EXTT18=
EXTT19=
EXTT20=
EXTT21=
EXTT22=
PLAYORDER=
